PathFileType	4	(X/Y/Z)	./resultDataOpenSim/trcMotMarkerGrf/sub09/qtm-02-06.trc
DataRate	CameraRate	NumFrames	NumMarkers	Units	OrigDataRate	OrigDataStartFrame	OrigNumFrames
250.000000	250.000000	5	24	m	250.000000	182	485
Frame#	Time	L.Toe.Tip			R.Toe.Tip			L.Ankle.Lat			R.Ankle.Lat			L.Ankle.Med			R.Ankle.Med			L.Heel			R.Heel			L.Knee.Lat			R.Knee.Lat			L.Knee.Med			R.Knee.Med			L.Thigh.Upper			R.Thigh.Upper			L.ASIS			R.ASIS			V.Sacral			L.Acromium			R.Acromium			C7			L.Elbow			R.Elbow			L.Wrist.Lat			R.Wrist.Lat
		X1	Y1	Z1	X2	Y2	Z2	X3	Y3	Z3	X4	Y4	Z4	X5	Y5	Z5	X6	Y6	Z6	X7	Y7	Z7	X8	Y8	Z8	X9	Y9	Z9	X10	Y10	Z10	X11	Y11	Z11	X12	Y12	Z12	X13	Y13	Z13	X14	Y14	Z14	X15	Y15	Z15	X16	Y16	Z16	X17	Y17	Z17	X18	Y18	Z18	X19	Y19	Z19	X20	Y20	Z20	X21	Y21	Z21	X22	Y22	Z22	X23	Y23	Z23	X24	Y24	Z24

182	0.724	0.13952016	0.015311109	0.026955802	-0.62336552	0.065017824	0.12710713	-0.0051112816	0.046718312	-0.026343221	-0.66301943	0.21134242	0.17330961	0.00657484	0.067866298	0.070526027	-0.61669443	0.21082806	0.086345562	-0.080729244	0.012203443	0.012323844	-0.70786052	0.25524317	0.11661735	0.022200478	0.4573503	-0.076867184	-0.26370575	0.42115465	0.22854213	0.014865819	0.45987386	0.048163942	-0.2582877	0.39776974	0.099734613	-0.17934316	0.83008283	-0.12715081	-0.22946412	0.81475777	0.24502113	-0.11926705	0.91973976	-0.05881339	-0.12498553	0.90217365	0.18216398	-0.29015202	0.95962477	0.05509784	-0.14311093	1.3559531	-0.11365308	-0.15276589	1.3699303	0.21836426	-0.21365098	1.4163332	0.051984354	-0.29991191	1.0286225	-0.15933037	-0.28789511	1.0318655	0.31004299	-0.24274256	0.78644491	-0.23754425	-0.12943017	0.80568193	0.32254184
183	0.728	0.13956662	0.015238182	0.027055118	-0.61570862	0.067722593	0.12849437	-0.0047835323	0.046659873	-0.026358694	-0.65126764	0.21558515	0.17409576	0.0067679554	0.067765448	0.070563654	-0.6049443	0.21435028	0.087149514	-0.08072248	0.012242712	0.012224058	-0.69523096	0.26126761	0.1179674	0.026263508	0.45693547	-0.07666042	-0.25070011	0.4206796	0.22851102	0.017884087	0.45943274	0.047990305	-0.24543431	0.39759255	0.099816727	-0.17254715	0.83098907	-0.12744651	-0.22236174	0.81488076	0.24454649	-0.11280033	0.92042822	-0.059169608	-0.11865845	0.90275091	0.18178294	-0.28393251	0.96081885	0.05487971	-0.13588731	1.3566403	-0.11379341	-0.14581514	1.3705812	0.21831181	-0.20638081	1.41734	0.051836842	-0.29213836	1.0287045	-0.15983074	-0.28178787	1.0329739	0.31016832	-0.23245066	0.78669943	-0.23698743	-0.12507447	0.8056165	0.32267881
184	0.732	0.13958596	0.015182287	0.027139618	-0.6067544	0.070766414	0.1300169	-0.0045470593	0.046604857	-0.026392025	-0.63934009	0.2196581	0.1747335	0.0069209417	0.067687052	0.070574496	-0.59300142	0.21800115	0.087770893	-0.080744656	0.012267512	0.012120057	-0.68214892	0.26681033	0.11894594	0.029860225	0.45674726	-0.076600295	-0.23759914	0.42047152	0.22840007	0.020638316	0.45917733	0.04787412	-0.23295251	0.39780643	0.10017148	-0.16593647	0.83211521	-0.12769891	-0.21546196	0.81519325	0.24410797	-0.10635698	0.92121237	-0.059410559	-0.11247866	0.90346636	0.18149562	-0.27776316	0.96218139	0.0551911	-0.12869559	1.3574147	-0.11391462	-0.13892974	1.3713518	0.21828439	-0.19921533	1.4184687	0.051832429	-0.28429425	1.028849	-0.16053497	-0.27571976	1.0341593	0.31029995	-0.22207467	0.78707033	-0.23638065	-0.12094846	0.80556239	0.32276503
185	0.736	0.13957688	0.015143627	0.027209879	-0.59650083	0.074093009	0.13167311	-0.0044214914	0.046564879	-0.026435975	-0.62719387	0.22366206	0.17524121	0.0070211672	0.067641361	0.070562407	-0.58095615	0.22176229	0.088256653	-0.080795057	0.012280398	0.012025384	-0.66891394	0.27181291	0.11963844	0.032946175	0.45687555	-0.076861343	-0.22443155	0.4205364	0.22821095	0.023166153	0.45905577	0.047799872	-0.22075185	0.39837809	0.10072386	-0.15953007	0.83345214	-0.12790761	-0.20876858	0.81569605	0.24370869	-0.099920261	0.92211847	-0.059529907	-0.10642417	0.90432406	0.18130955	-0.27163754	0.96366322	0.055446714	-0.1215232	1.3582955	-0.11399854	-0.13211477	1.3722499	0.21826859	-0.19215394	1.4196935	0.051876092	-0.27648434	1.0290815	-0.16124683	-0.26962486	1.03541	0.31039979	-0.2116204	0.78756881	-0.23572301	-0.11693875	0.80557717	0.32282878
186	0.74	0.13954087	0.015120458	0.027256098	-0.58510054	0.07757341	0.13347152	-0.0043883197	0.046543861	-0.026489054	-0.6147811	0.22767596	0.17563094	0.0070742596	0.067629529	0.070526253	-0.56879095	0.22559009	0.088642621	-0.08086988	0.012285468	0.011948027	-0.65584121	0.27626443	0.12007687	0.035673609	0.45726331	-0.077415292	-0.21122552	0.42087089	0.22795847	0.025471086	0.45899323	0.04772315	-0.20854289	0.39924144	0.10113663	-0.1533081	0.83497442	-0.12808436	-0.20225319	0.81638538	0.24334634	-0.093486607	0.92315566	-0.059531129	-0.10046161	0.90532397	0.18122554	-0.26552541	0.96521819	0.055192458	-0.11435761	1.3592917	-0.11403038	-0.12537428	1.3732792	0.21826544	-0.18513097	1.4209746	0.051737176	-0.26877676	1.0294261	-0.16181064	-0.26352576	1.0367386	0.3104813	-0.20110276	0.78820083	-0.23501457	-0.11290357	0.80572942	0.32290869
